<?xml version="1.0" encoding="UTF-8" standalone="no"?>
<!DOCTYPE svg PUBLIC "-//W3C//DTD SVG 1.1//EN" "http://www.w3.org/Graphics/SVG/1.1/DTD/svg11.dtd">
<svg width="100%" height="100%" viewBox="0 0 460 275" version="1.1" xmlns="http://www.w3.org/2000/svg" xmlns:xlink="http://www.w3.org/1999/xlink" xml:space="preserve" xmlns:serif="http://www.serif.com/" style="fill-rule:evenodd;clip-rule:evenodd;stroke-linejoin:round;stroke-miterlimit:2;">
    <g transform="matrix(1,0,0,1,-1457.93,-222.872)">
        <g transform="matrix(1,0,0,1,1372.89,0)">
            <g transform="matrix(1,0,0,1,-325.16,41.6859)">
                <g transform="matrix(0.94712,0,0,0.944152,257.005,187.818)">
                    <path d="M224.522,248.319L278.954,248.319C278.954,254.655 278.666,259.263 278.09,262.143C275.978,274.047 268.01,279.999 254.186,279.999L183.05,279.999C176.522,279.999 171.338,278.031 167.498,274.095C163.658,270.159 161.738,264.735 161.738,257.823C161.738,257.823 164.192,221.891 166.045,194.753C167.395,174.982 167.307,155.139 165.782,135.381C163.968,111.888 161.738,83.007 161.738,83.007L163.754,81.279L177.29,81.279C184.586,81.279 189.962,83.103 193.418,86.751C194.868,88.281 197.127,102.3 199.263,118.065C203.216,146.749 204.113,175.773 201.939,204.648C200.312,226.471 198.602,249.183 198.602,249.183C207.818,248.607 216.458,248.319 224.522,248.319Z" style="fill:rgb(0,1,25);fill-rule:nonzero;"/>
                    <path d="M421.514,263.295C420.554,266.559 418.874,269.967 416.474,273.519C414.074,277.071 411.626,279.807 409.13,281.727C397.226,280.383 388.49,274.815 382.922,265.023C370.25,277.311 356.522,283.455 341.738,283.455C326.954,283.455 315.818,279.135 308.33,270.495C300.842,261.855 297.098,251.871 297.098,240.543C297.098,224.415 302.33,212.271 312.794,204.111C323.258,195.951 336.65,191.871 352.97,191.871C361.802,191.871 370.154,192.255 378.026,193.023L378.026,184.383C378.026,169.215 370.73,161.631 356.138,161.631C345.77,161.631 331.082,165.087 312.074,171.999C306.506,166.047 303.338,157.503 302.57,146.367C323.306,137.727 344.042,133.407 364.778,133.407C379.178,133.407 390.89,137.439 399.914,145.503C408.938,153.567 413.45,165.759 413.45,182.079L413.45,240.831C413.45,251.391 416.138,258.879 421.514,263.295ZM349.226,256.095C359.21,256.095 368.81,251.487 378.026,242.271L378.026,216.639C371.306,215.871 364.01,215.487 356.138,215.487C348.266,215.487 342.314,217.503 338.282,221.535C334.25,225.567 332.234,230.655 332.234,236.799C332.234,242.943 333.77,247.695 336.842,251.055C339.914,254.415 344.042,256.095 349.226,256.095Z" style="fill:rgb(0,1,25);fill-rule:nonzero;"/>
                    <path d="M444.842,153.279C445.61,150.015 447.194,146.511 449.594,142.767C451.994,139.023 454.442,136.287 456.938,134.559C471.914,136.863 481.994,145.407 487.178,160.191C494.858,143.103 507.242,134.559 524.33,134.559C528.746,134.559 534.314,135.231 541.034,136.575C541.034,149.055 538.154,160.191 532.394,169.983C529.514,169.215 525.194,168.639 519.434,168.255C507.722,168.255 498.314,174.495 491.21,186.975L491.21,279.423C485.834,280.383 479.978,280.863 473.642,280.863C467.306,280.863 461.258,280.383 455.498,279.423L455.498,182.943C455.498,168.927 451.946,159.039 444.842,153.279Z" style="fill:rgb(0,1,25);fill-rule:nonzero;"/>
                    <path d="M645.578,136.287C646.538,140.127 647.018,144.495 647.018,149.391C647.018,154.287 646.538,158.559 645.578,162.207L610.442,161.631L610.442,239.967C610.442,248.607 614.57,252.927 622.826,252.927L641.258,252.927C643.178,258.687 644.138,263.775 644.138,268.191C644.138,272.607 643.85,275.967 643.274,278.271C631.178,279.999 619.754,280.863 609.002,280.863C586.73,280.863 575.594,269.631 575.594,247.167L575.594,161.919L553.994,162.207C553.034,158.559 552.554,154.287 552.554,149.391C552.554,144.495 553.034,140.127 553.994,136.287L575.594,136.863L575.594,114.975C575.594,106.911 577.034,101.199 579.914,97.839C582.794,94.479 587.786,92.799 594.89,92.799L608.714,92.799L610.442,94.815L610.442,136.863L645.578,136.287Z" style="fill:rgb(0,1,25);fill-rule:nonzero;"/>
                </g>
                <g transform="matrix(1,0,0,1,-1063.44,44.7491)">
                    <path d="M1661.39,219.808L1729.07,219.808C1729.07,219.808 1729.07,219.808 1729.07,219.808C1747.83,197.053 1768.69,176.102 1791.35,157.229C1792.48,156.292 1793.13,155.75 1793.13,155.75C1798.32,150.56 1798.32,142.145 1793.13,136.955C1791.4,135.225 1784.7,138.018 1776.53,142.51C1755.01,154.352 1735.74,169.889 1719.6,188.41C1708.83,200.763 1697.34,213.948 1697.34,213.948C1696.69,214.597 1695.84,215.257 1695.01,215.835C1695.01,215.835 1651.4,180.636 1646.21,185.826C1641.02,191.016 1641.02,199.431 1646.21,204.621L1661.39,219.808Z" style="fill:url(#_Linear1);"/>
                </g>
            </g>
        </g>
    </g>
    <defs>
        <linearGradient id="_Linear1" x1="0" y1="0" x2="1" y2="0" gradientUnits="userSpaceOnUse" gradientTransform="matrix(176.829,0,0,176.829,1615.65,176.143)"><stop offset="0" style="stop-color:rgb(24,211,129);stop-opacity:1"/><stop offset="1" style="stop-color:rgb(23,195,207);stop-opacity:1"/></linearGradient>
    </defs>
</svg>
